<svg xmlns="http://www.w3.org/2000/svg" fill="none" viewBox="0 0 24 24" id="Award--Streamline-Block-Free.svg" height="24" width="24"><desc>Award Streamline Icon: https://streamlinehq.com</desc><path fill="#ffffff" d="m7.5 0 3.1126950000000004 6.847949999999999c-2.3897850000000003 0.34042500000000003 -4.50036 1.547385 -6.00339 3.29253L0 0h7.5Z" stroke-width="1"></path><path fill="#ffffff" fill-rule="evenodd" d="M11.595780000000001 9.01071c-2.492355 0.13236 -4.661865 1.48152 -5.925345 3.464265C4.929375 13.637909999999998 4.5 15.018749999999999 4.5 16.5c0 4.1421 3.3578699999999997 7.5 7.5 7.5 4.1421 0 7.5 -3.3579 7.5 -7.5 0 -1.4812500000000002 -0.4293 -2.8620900000000002 -1.17045 -4.025024999999999L24 0h-7.5L12.404219999999999 9.01071C12.27039 9.003599999999999 12.135615000000001 9 12 9c-0.135615 0 -0.27039 0.0036 -0.40422 0.010709999999999999ZM13.875 16.5c0 1.0356 -0.8394600000000001 1.875 -1.875 1.875S10.125 17.535600000000002 10.125 16.5 10.964459999999999 14.625 12 14.625s1.875 0.8393999999999999 1.875 1.875Z" clip-rule="evenodd" stroke-width="1"></path></svg>