<svg xmlns="http://www.w3.org/2000/svg" fill="#e84b2a" class="bi bi-briefcase-fill" viewBox="0 0 24 24" id="Briefcase-Fill--Streamline-Bootstrap.svg" height="24" width="24"><desc>Briefcase Fill Streamline Icon: https://streamlinehq.com</desc><path d="M9.75 1.5A2.25 2.25 0 0 0 7.5 3.75V4.5H2.25A2.25 2.25 0 0 0 0 6.75v2.0759999999999996l11.421 3.045a2.25 2.25 0 0 0 1.158 0L24 8.826V6.75A2.25 2.25 0 0 0 21.75 4.5H16.5v-0.75A2.25 2.25 0 0 0 14.25 1.5zm0 1.5h4.5a0.75 0.75 0 0 1 0.75 0.75V4.5H9v-0.75a0.75 0.75 0 0 1 0.75 -0.75" stroke-width="1"></path><path d="M0 18.75A2.25 2.25 0 0 0 2.25 21h19.5a2.25 2.25 0 0 0 2.25 -2.25V10.274999999999999L12.1935 13.420499999999999a0.75 0.75 0 0 1 -0.387 0L0 10.274999999999999z" stroke-width="1"></path></svg>