<svg xmlns="http://www.w3.org/2000/svg" fill="none" viewBox="0 0 24 24" id="Call-Center-Support-Service--Streamline-Flex.svg" height="24" width="24"><desc>Call Center Support Service Streamline Icon: https://streamlinehq.com</desc><g id="call-center-support-service"><path id="Union" fill="#e84b2a" fill-rule="evenodd" d="M9.843428571428571 1.7914285714285711A2.595428571428571 2.595428571428571 0 0 1 12.289714285714284 0.060000000000000005h1.0559999999999998a2.5542857142857143 2.5542857142857143 0 0 1 1.0251428571428571 4.897714285714286l-2.262857142857143 0.989142857142857a0.45257142857142857 0.45257142857142857 0 0 0 -0.22114285714285714 0.20914285714285713h2.9434285714285715a1.0714285714285714 1.0714285714285714 0 1 1 0 2.142857142857143H10.765714285714285a1.0714285714285714 1.0714285714285714 0 0 1 -1.0731428571428572 -1.0714285714285714v-0.8657142857142857c0 -1.0319999999999998 0.6102857142857142 -1.9645714285714284 1.5548571428571427 -2.3777142857142857l2.262857142857143 -0.989142857142857a0.41142857142857137 0.41142857142857137 0 0 0 -0.1662857142857143 -0.792h-1.0559999999999998a0.45257142857142857 0.45257142857142857 0 0 0 -0.4268571428571428 0.30171428571428566 1.0714285714285714 1.0714285714285714 0 1 1 -2.019428571428571 -0.7131428571428571Zm10.462285714285713 -1.2462857142857142a1.421142857142857 1.421142857142857 0 0 1 2.489142857142857 0.936v3.152571428571428a1.0714285714285714 1.0714285714285714 0 0 1 0 2.1394285714285712v0.4542857142857143a1.0714285714285714 1.0714285714285714 0 1 1 -2.142857142857143 0v-0.45257142857142857h-2.6228571428571428a1.44 1.44 0 0 1 -1.0834285714285714 -2.3897142857142852l3.36 -3.8400000000000003Zm-0.7285714285714285 4.086857142857142 1.0748571428571427 -1.229142857142857v1.229142857142857h-1.0748571428571427ZM1.8891428571428572 8.16342857142857c0.9702857142857142 -1.3234285714285714 2.7857142857142856 -1.512 4.023428571428571 -0.4371428571428571 0.5485714285714286 0.4765714285714286 1.0851428571428572 0.9737142857142855 1.6114285714285712 1.4674285714285713 0.72 0.6737142857142857 0.7988571428571428 1.8342857142857143 0.15428571428571428 2.5817142857142854 -0.0737142857142857 0.08571428571428572 -0.3325714285714286 0.35657142857142854 -0.5777142857142857 0.6102857142857142l-0.3942857142857143 0.4131428571428571c1.2325714285714284 2.0725714285714285 2.5114285714285716 3.3668571428571425 4.621714285714286 4.619999999999999 0.09771428571428571 -0.09085714285714284 0.25199999999999995 -0.24000000000000002 0.41142857142857137 -0.3942857142857143 0.25199999999999995 -0.24000000000000002 0.5194285714285714 -0.4971428571428571 0.6034285714285713 -0.5691428571428572 0.7474285714285713 -0.6462857142857142 1.9131428571428573 -0.5674285714285714 2.5937142857142854 0.14914285714285713 0.5245714285714286 0.5519999999999999 1.0577142857142856 1.1142857142857143 1.56 1.697142857142857 1.0302857142857142 1.2 0.8194285714285714 2.955428571428571 -0.46285714285714286 3.886285714285714 -0.22457142857142856 0.16457142857142856 -0.4954285714285714 0.3651428571428571 -0.8451428571428571 0.6462857142857142a5.105142857142857 5.105142857142857 0 0 1 -6.353142857142856 -0.008571428571428572A49.54285714285714 49.54285714285714 0 0 1 1.3011428571428572 15.29142857142857a5.105142857142857 5.105142857142857 0 0 1 -0.008571428571428572 -6.353142857142856c0.2502857142857143 -0.31371428571428567 0.44057142857142856 -0.5657142857142857 0.5965714285714285 -0.7765714285714286Z" clip-rule="evenodd" stroke-width="1"></path></g></svg>