<svg xmlns="http://www.w3.org/2000/svg" fill="none" viewBox="-0.5 -0.5 24 24" id="Coffee-Mug--Streamline-Plump.svg" height="24" width="24"><desc>Coffee Mug Streamline Icon: https://streamlinehq.com</desc><g id="coffee-mug--coffee-cook-cup-drink-mug-cooking-nutrition-cafe-caffeine-food"><path id="Union" fill="#ffffff" fill-rule="evenodd" d="M11.979166666666668 0.4791666666666667c-0.5292875 0 -0.9583333333333334 0.4290602083333333 -0.9583333333333334 0.9583333333333334v3.354166666666667c0 0.5292875 0.42904583333333335 0.9583333333333334 0.9583333333333334 0.9583333333333334s0.9583333333333334 -0.42904583333333335 0.9583333333333334 -0.9583333333333334V1.4375c0 -0.529273125 -0.42904583333333335 -0.9583333333333334 -0.9583333333333334 -0.9583333333333334ZM6.1427249999999995 22.171377083333333c0.9216291666666667 0.06602916666666667 2.05505 0.10987291666666667 3.4406083333333335 0.10987291666666667 1.3855583333333334 0 2.5189791666666665 -0.04384375 3.4406083333333335 -0.10987291666666667 2.262097916666667 -0.16215 3.852595833333334 -1.66908125 4.301814583333334 -3.7234604166666667h0.7062916666666667c1.8230854166666668 0 3.5919770833333335 -1.2708458333333335 3.728922916666667 -3.3168395833333335 0.02525208333333333 -0.37729583333333333 0.0411125 -0.7911041666666667 0.0411125 -1.2352437500000002 0 -0.4441395833333333 -0.015860416666666665 -0.8579479166666667 -0.0411125 -1.2352437500000002 -0.13694583333333335 -2.04599375 -1.9058375 -3.3168395833333335 -3.728922916666667 -3.3168395833333335h-0.78473125c-0.18471875000000001 -0.8288145833333334 -0.8333666666666667 -1.4660583333333335 -1.7143145833333335 -1.5965833333333332C14.514820833333333 7.596325 12.683589583333333 7.427083333333334 9.583333333333334 7.427083333333334s-4.931497083333333 0.16924166666666668 -5.949678333333334 0.3200833333333334c-0.9696033333333334 0.14365416666666667 -1.6578160416666667 0.9011687500000001 -1.755748125 1.8523145833333334C1.7814841666666668 10.536060416666666 1.6770833333333335 12.168916666666668 1.6770833333333335 14.854166666666668c0 1.00208125 0.014537916666666666 1.8509729166666666 0.03776791666666667 2.5678541666666668 0.083044375 2.5630625 1.8034970833333335 4.561283333333333 4.427873750000001 4.74935625ZM17.432514583333333 11.739583333333334c0.03421250000000001 0.8321208333333333 0.05706875 1.8581604166666668 0.05706875 3.1145833333333335 0 0.42650625000000003 -0.0026354166666666665 0.82526875 -0.007427083333333333 1.1979166666666667h0.5498916666666667c0.7958000000000001 0 1.3004583333333333 -0.51390625 1.3384083333333334 -1.081 0.021945833333333335 -0.32775000000000004 0.03579375 -0.6880833333333334 0.03579375 -1.07525 0 -0.3871666666666667 -0.013847916666666666 -0.7475 -0.03579375 -1.07525 -0.037950000000000005 -0.5670937500000001 -0.5426083333333334 -1.081 -1.3384083333333334 -1.081h-0.5995333333333334ZM7.1875 2.3958333333333335c0 -0.529273125 0.42904583333333335 -0.9583333333333334 0.9583333333333334 -0.9583333333333334s0.9583333333333334 0.4290602083333333 0.9583333333333334 0.9583333333333334v3.354166666666667c0 0.5292875 -0.42904583333333335 0.9583333333333334 -0.9583333333333334 0.9583333333333334s-0.9583333333333334 -0.42904583333333335 -0.9583333333333334 -0.9583333333333334V2.3958333333333335Z" clip-rule="evenodd" stroke-width="1"></path></g></svg>