<svg xmlns="http://www.w3.org/2000/svg" fill="#e84b2a" class="bi bi-lightbulb-fill" viewBox="0 0 24 24" id="Lightbulb-Fill--Streamline-Bootstrap.svg" height="24" width="24"><desc>Lightbulb Fill Streamline Icon: https://streamlinehq.com</desc><path d="M3 9a9 9 0 1 1 15.261 6.465c-0.3045 0.29400000000000004 -0.5385 0.6000000000000001 -0.6795 0.9285l-1.143 2.6534999999999997A0.75 0.75 0 0 1 15.75 19.5h-7.5a0.75 0.75 0 0 1 -0.6900000000000001 -0.45299999999999996l-1.1415 -2.6550000000000002a3 3 0 0 0 -0.6795 -0.927A8.97 8.97 0 0 1 3 9m4.5 12.75a0.75 0.75 0 0 1 0.75 -0.75h7.5a0.75 0.75 0 0 1 0 1.5l-0.336 0.6705a1.5 1.5 0 0 1 -1.341 0.8295000000000001H9.927a1.5 1.5 0 0 1 -1.341 -0.8295000000000001L8.25 22.5a0.75 0.75 0 0 1 -0.75 -0.75" stroke-width="1"></path></svg>