<svg xmlns="http://www.w3.org/2000/svg" fill="#e84b2a" class="bi bi-pencil-square" viewBox="0 0 24 24" id="Pencil-Square--Streamline-Bootstrap.svg" height="24" width="24"><desc>Pencil Square Streamline Icon: https://streamlinehq.com</desc><path d="M23.253 2.91a0.75 0.75 0 0 1 0 1.059L21.688499999999998 5.535l-3 -3L20.253 0.9690000000000001a0.75 0.75 0 0 1 1.0605 0l1.9394999999999998 1.9394999999999998zm-2.625 3.684 -3 -3L7.4085 13.815000000000001a0.75 0.75 0 0 0 -0.1815 0.29400000000000004l-1.2075 3.6210000000000004a0.375 0.375 0 0 0 0.474 0.474l3.6210000000000004 -1.2075a0.75 0.75 0 0 0 0.29400000000000004 -0.18l10.2195 -10.221z" stroke-width="1"></path><path fill-rule="evenodd" d="M1.5 20.25A2.25 2.25 0 0 0 3.75 22.5h16.5a2.25 2.25 0 0 0 2.25 -2.25v-9a0.75 0.75 0 0 0 -1.5 0v9a0.75 0.75 0 0 1 -0.75 0.75h-16.5a0.75 0.75 0 0 1 -0.75 -0.75v-16.5a0.75 0.75 0 0 1 0.75 -0.75H13.5a0.75 0.75 0 0 0 0 -1.5H3.75A2.25 2.25 0 0 0 1.5 3.75z" stroke-width="1"></path></svg>