<svg xmlns="http://www.w3.org/2000/svg" fill="none" viewBox="0 0 24 24" id="Piggy-Bank--Streamline-Flex.svg" height="24" width="24"><desc>Piggy Bank Streamline Icon: https://streamlinehq.com</desc><g id="piggy-bank--institution-saving-bank-payment-finance"><path id="Union" fill="#e84b2a" fill-rule="evenodd" d="m18.1968 5.990314285714285 0.3706285714285714 -2.2239085714285713c0.17914285714285713 -1.07496 -0.6541714285714285 -2.1076542857142857 -1.7364171428571427 -1.9793485714285712 -1.2629485714285715 0.14974285714285712 -2.6811599999999998 0.5858742857142857 -3.6377485714285713 1.8372000000000002 -0.5766685714285714 -0.09716571428571429 -1.1712342857142857 -0.14795999999999998 -1.7788457142857141 -0.14795999999999998 -2.5661142857142853 0 -4.89948 0.9058971428571428 -6.634268571428571 2.3850857142857143 -0.041519999999999994 -0.04050857142857143 -0.08628 -0.07868571428571429 -0.13422857142857142 -0.11417142857142858 -0.7368685714285714 -0.5453142857142856 -1.391862857142857 -1.268142857142857 -1.7267142857142856 -2.1654685714285713 -0.24824571428571426 -0.6652628571428572 -0.9887999999999999 -1.0033199999999998 -1.654074857142857 -0.7550742857142857 -0.6652697142857142 0.24826285714285715 -1.0033285714285713 0.9888171428571428 -0.7550742857142857 1.6540799999999998 0.5528194285714285 1.4814514285714284 1.5791605714285715 2.5649314285714286 2.5670348571428567 3.3042857142857143 -0.865302857142857 1.3194 -1.3623942857142857 2.8615199999999996 -1.3623942857142857 4.509205714285714 0 1.6526914285714285 0.5001257142857143 3.199182857142857 1.3703142857142856 4.52124 -0.0751542857142857 0.17247428571428572 -0.13554857142857143 0.35429142857142853 -0.1792628571428571 0.5442342857142857l-0.46134857142857144 2.0052c-0.3822 1.661142857142857 0.6545485714285714 3.317485714285714 2.315657142857143 3.6997714285714283 1.6610914285714284 0.3821142857142857 3.3175199999999996 -0.6546857142857143 3.69972 -2.315657142857143l0.011502857142857141 -0.050057142857142856c0.9282514285714285 0.2682857142857143 1.9170857142857143 0.4131428571428571 2.9431371428571427 0.4131428571428571 0.73812 0 1.4569885714285715 -0.07491428571428571 2.1478971428571425 -0.21685714285714286 0.4431771428571429 1.5750857142857142 2.0505599999999995 2.5402285714285715 3.662314285714286 2.1694285714285715 1.6282285714285714 -0.3747428571428571 2.6566285714285716 -1.9734857142857143 2.336742857142857 -3.6010285714285715l2.782285714285714 -1.391142857142857c0.5976 -0.2988 0.9749142857142856 -0.9094285714285714 0.9749142857142856 -1.5774857142857142V12.294239999999999c0 -0.9740057142857141 -0.7896 -1.763588571428571 -1.763485714285714 -1.763588571428571h-0.6349714285714285c-0.39308571428571426 -1.7607085714285713 -1.3633714285714285 -3.3308914285714284 -2.723314285714286 -4.540337142857143Zm-5.900605714285714 2.3677714285714284c0.5917371428571429 0 1.0714285714285714 -0.47969142857142855 1.0714285714285714 -1.0714285714285714s-0.47969142857142855 -1.0714285714285714 -1.0714285714285714 -1.0714285714285714l-2.6784514285714285 0c-0.5917371428571429 0 -1.0714285714285714 0.47969142857142855 -1.0714285714285714 1.0714285714285714s0.47969142857142855 1.0714285714285714 1.0714285714285714 1.0714285714285714l2.6784514285714285 0Zm4.84992 1.1945828571428572c0.5917714285714285 0 1.0714285714285714 0.47969142857142855 1.0714285714285714 1.0714285714285714v1.6699885714285714c0 0.5917371428571429 -0.47965714285714284 1.0714285714285714 -1.0714285714285714 1.0714285714285714 -0.5917542857142857 0 -1.0714457142857141 -0.47969142857142855 -1.0714457142857141 -1.0714285714285714v-1.6699885714285714c0 -0.5917371428571429 0.47969142857142855 -1.0714285714285714 1.0714457142857141 -1.0714285714285714Z" clip-rule="evenodd" stroke-width="1"></path></g></svg>