<svg xmlns="http://www.w3.org/2000/svg" fill="none" viewBox="0 0 24 24" id="Confirm-User--Streamline-Block-Free.svg" height="24" width="24"><desc>Confirm User Streamline Icon: https://streamlinehq.com</desc><path fill="#e84b2a" d="M9.75 18c0 1.0584 0.19929000000000002 2.07015 0.56241 3H0c0 -4.652699999999999 3.026115 -8.598479999999999 7.217505000000001 -9.97671C5.581035 9.95175 4.5 8.102115000000001 4.5 6c0 -3.3137100000000004 2.6862899999999996 -6 6 -6s6 2.6862899999999996 6 6c0 1.32207 -0.42765000000000003 2.54427 -1.1520000000000001 3.535845 -0.42433499999999996 0.58077 -1.0227 0.985215 -1.62189 1.3902299999999999 -0.20508 0.13861500000000002 -0.41025 0.27729 -0.60858 0.42313500000000004C11.075325 12.85095 9.75 15.27075 9.75 18Z" stroke-width="1"></path><path fill="#e84b2a" fill-rule="evenodd" d="M24 18c0 3.31365 -2.68635 6 -6 6 -3.3137100000000004 0 -6 -2.68635 -6 -6 0 -3.3137100000000004 2.6862899999999996 -6 6 -6 3.31365 0 6 2.6862899999999996 6 6Zm-2.25 -1.40895L20.158949999999997 15l-2.81805 2.8179 -1.5 -1.5 -1.59096 1.59105L17.341050000000003 21 21.75 16.591050000000003Z" clip-rule="evenodd" stroke-width="1"></path></svg>