<svg viewBox="0 0 24 24" fill="none" xmlns="http://www.w3.org/2000/svg" id="Whatsapp--Streamline-Unicons.svg" height="24" width="24"><desc>Whatsapp Streamline Icon: https://streamlinehq.com</desc><path d="M17.4579 14.3637c-0.2349 -0.1174 -1.7618 -0.8221 -1.9967 -0.9396 -0.2349 -0.1174 -0.4698 -0.1174 -0.7047 0.1175s-0.7048 0.9396 -0.9397 1.1745c-0.1174 0.2349 -0.3523 0.2349 -0.5872 0.1174 -0.8222 -0.3523 -1.6444 -0.8221 -2.3491 -1.4094 -0.5873 -0.5873 -1.1745 -1.292 -1.6443 -1.9967 -0.1175 -0.2349 0 -0.4698 0.1174 -0.5873 0.1175 -0.1174 0.2349 -0.3523 0.4698 -0.4698 0.1175 -0.1174 0.2349 -0.3523 0.2349 -0.4698 0.1175 -0.1174 0.1175 -0.3523 0 -0.4698 -0.1174 -0.1174 -0.7047 -1.5269 -0.9396 -2.1142 -0.1174 -0.8221 -0.3524 -0.8221 -0.5873 -0.8221h-0.5872c-0.2349 0 -0.5873 0.2349 -0.7048 0.3523 -0.7047 0.7048 -1.057 1.5269 -1.057 2.4666 0.1174 1.057 0.4698 2.1141 1.1745 3.0537 1.292 1.8793 2.9363 3.4062 4.933 4.3458 0.5873 0.2349 1.0571 0.4698 1.6444 0.5873 0.5872 0.2349 1.1745 0.2349 1.8792 0.1174 0.8222 -0.1174 1.5269 -0.7047 1.9967 -1.4094 0.2349 -0.4698 0.2349 -0.9396 0.1175 -1.4095l-0.4698 -0.2349Zm2.9363 -10.6882c-4.5807 -4.5807 -11.9802 -4.5807 -16.5609 0C0.0748 7.434 -0.6299 13.1892 1.9541 17.7699L0.3097 23.76l6.225 -1.6443c1.7618 0.9396 3.6411 1.4094 5.5203 1.4094 6.46 0 11.6279 -5.1679 11.6279 -11.6279 0.1175 -3.0538 -1.1745 -5.9901 -3.2887 -8.2217ZM17.223 20.119c-1.5269 0.9396 -3.2887 1.5268 -5.168 1.5268 -1.7618 0 -3.4061 -0.4698 -4.933 -1.2919l-0.3524 -0.235 -3.641 0.9397 0.9396 -3.5236 -0.2349 -0.3524C1.0144 12.4845 2.4239 6.6118 7.0046 3.6755 11.5852 0.7392 17.4579 2.2661 20.2768 6.7293c2.8188 4.5806 1.5269 10.5708 -3.0538 13.3896Z" fill="#e84b2a" stroke-width="1"></path></svg>